<svg width="960" height="520" viewBox="0 0 960 520" fill="none" xmlns="http://www.w3.org/2000/svg" role="img" aria-labelledby="title desc">
  <title id="title">less-robot hero illustration version 2</title>
  <desc id="desc">A dark, stylish editor mascot with a pencil, soft glows, and subtle HUD panels for the less-robot project.</desc>
  <defs>
    <linearGradient id="bg" x1="120" y1="40" x2="860" y2="500" gradientUnits="userSpaceOnUse">
      <stop stop-color="#050816"/>
      <stop offset="0.55" stop-color="#0B1022"/>
      <stop offset="1" stop-color="#0A1328"/>
    </linearGradient>
    <radialGradient id="glowBlue" cx="0" cy="0" r="1" gradientUnits="userSpaceOnUse" gradientTransform="translate(685 140) rotate(90) scale(180 220)">
      <stop stop-color="#60A5FA" stop-opacity="0.35"/>
      <stop offset="1" stop-color="#60A5FA" stop-opacity="0"/>
    </radialGradient>
    <radialGradient id="glowOrange" cx="0" cy="0" r="1" gradientUnits="userSpaceOnUse" gradientTransform="translate(315 370) rotate(90) scale(160 200)">
      <stop stop-color="#FB923C" stop-opacity="0.18"/>
      <stop offset="1" stop-color="#FB923C" stop-opacity="0"/>
    </radialGradient>
    <linearGradient id="hood" x1="354" y1="84" x2="620" y2="366" gradientUnits="userSpaceOnUse">
      <stop stop-color="#25324B"/>
      <stop offset="1" stop-color="#121C31"/>
    </linearGradient>
    <linearGradient id="mask" x1="402" y1="205" x2="559" y2="266" gradientUnits="userSpaceOnUse">
      <stop stop-color="#F8FAFC"/>
      <stop offset="1" stop-color="#DDE7F5"/>
    </linearGradient>
    <linearGradient id="pencil" x1="661" y1="136" x2="778" y2="224" gradientUnits="userSpaceOnUse">
      <stop stop-color="#F59E0B"/>
      <stop offset="1" stop-color="#FB7185"/>
    </linearGradient>
    <filter id="blur40" x="160" y="0" width="690" height="520" filterUnits="userSpaceOnUse" color-interpolation-filters="sRGB">
      <feGaussianBlur stdDeviation="40"/>
    </filter>
  </defs>

  <rect width="960" height="520" rx="36" fill="url(#bg)"/>
  <g opacity="0.8">
    <circle cx="690" cy="145" r="170" fill="url(#glowBlue)"/>
    <circle cx="305" cy="378" r="150" fill="url(#glowOrange)"/>
  </g>

  <g opacity="0.28">
    <path d="M96 102H328" stroke="#93C5FD" stroke-width="2"/>
    <path d="M632 86H840" stroke="#60A5FA" stroke-width="2"/>
    <path d="M708 414H872" stroke="#FB923C" stroke-width="2"/>
    <path d="M112 418H296" stroke="#60A5FA" stroke-width="2"/>
    <circle cx="90" cy="102" r="6" fill="#60A5FA"/>
    <circle cx="844" cy="86" r="6" fill="#60A5FA"/>
    <circle cx="876" cy="414" r="6" fill="#FB923C"/>
    <circle cx="106" cy="418" r="6" fill="#60A5FA"/>
  </g>

  <g opacity="0.6">
    <rect x="98" y="120" width="150" height="62" rx="16" fill="#0B1324" stroke="rgba(255,255,255,0.08)"/>
    <text x="124" y="145" fill="#94A3B8" font-family="Inter,Segoe UI,Arial,sans-serif" font-size="13" letter-spacing="1.5">MODE</text>
    <text x="124" y="168" fill="#F8FAFC" font-family="Inter,Segoe UI,Arial,sans-serif" font-size="22" font-weight="700">humanizer</text>

    <rect x="728" y="286" width="144" height="62" rx="16" fill="#0B1324" stroke="rgba(255,255,255,0.08)"/>
    <text x="752" y="311" fill="#94A3B8" font-family="Inter,Segoe UI,Arial,sans-serif" font-size="13" letter-spacing="1.5">OUTPUT</text>
    <text x="752" y="334" fill="#F8FAFC" font-family="Inter,Segoe UI,Arial,sans-serif" font-size="22" font-weight="700">less AI</text>
  </g>

  <ellipse cx="478" cy="416" rx="168" ry="26" fill="#020617" fill-opacity="0.56"/>

  <g>
    <path d="M360 180C360 111 415 56 484 56C553 56 608 111 608 180V202C608 256 582 304 540 336L494 371H474L428 336C386 304 360 256 360 202V180Z" fill="url(#hood)"/>
    <path d="M388 205C388 164 421 131 462 131H506C547 131 580 164 580 205V224C580 245 563 262 542 262H426C405 262 388 245 388 224V205Z" fill="url(#mask)"/>
    <path d="M432 205C439 196 447 192 458 192" stroke="#111827" stroke-width="8" stroke-linecap="round"/>
    <path d="M510 192C521 192 529 196 536 205" stroke="#111827" stroke-width="8" stroke-linecap="round"/>
    <path d="M455 278L484 302L513 278" stroke="#F8FAFC" stroke-width="10" stroke-linecap="round" stroke-linejoin="round"/>
    <path d="M373 353L443 315L484 372L418 410C402 419 382 414 373 398C364 382 367 362 383 353H373Z" fill="#E2E8F0"/>
    <path d="M495 372L532 316L597 354C613 363 618 384 608 400C599 416 579 421 563 412L495 372Z" fill="#F8FAFC"/>
    <path d="M580 138L674 202" stroke="#09111F" stroke-width="22" stroke-linecap="round"/>
    <rect x="660" y="126" width="132" height="30" rx="15" transform="rotate(37 660 126)" fill="url(#pencil)"/>
    <rect x="771" y="211" width="38" height="30" rx="15" transform="rotate(37 771 211)" fill="#FDE68A"/>
    <path d="M812 242L836 260L803 264L812 242Z" fill="#E5E7EB"/>
    <path d="M661 128L690 150" stroke="#FDE68A" stroke-width="4" stroke-linecap="round"/>
  </g>

  <g opacity="0.85">
    <path d="M233 88L244 112L268 123L244 134L233 158L222 134L198 123L222 112L233 88Z" fill="#60A5FA"/>
    <path d="M748 82L756 100L774 108L756 116L748 134L740 116L722 108L740 100L748 82Z" fill="#FB923C"/>
    <path d="M676 356L683 371L698 378L683 385L676 400L669 385L654 378L669 371L676 356Z" fill="#E2E8F0"/>
  </g>
</svg>
